<?xml version="1.0" standalone="no"?>
<!DOCTYPE svg PUBLIC "-//W3C//DTD SVG 20010904//EN"
 "http://www.w3.org/TR/2001/REC-SVG-20010904/DTD/svg10.dtd">
<svg version="1.0" xmlns="http://www.w3.org/2000/svg"
 width="512.000000pt" height="512.000000pt" viewBox="0 0 512.000000 512.000000"
 preserveAspectRatio="xMidYMid meet">
<metadata>
Created by potrace 1.11, written by Peter Selinger 2001-2013
</metadata>
<g transform="translate(0.000000,512.000000) scale(0.100000,-0.100000)"
fill="#000000" stroke="none">
<path d="M2165 4513 c-88 -20 -141 -58 -178 -127 -20 -38 -22 -58 -25 -243
l-3 -201 -30 10 c-17 6 -57 8 -89 6 -120 -9 -168 -81 -225 -338 -49 -225 -67
-290 -131 -470 -128 -359 -147 -562 -99 -1080 17 -179 17 -187 -2 -240 -10
-30 -90 -182 -177 -337 -98 -175 -156 -289 -152 -299 3 -9 15 -14 28 -12 18 2
51 53 161 248 186 329 206 372 213 451 3 35 -1 134 -10 219 -24 231 -30 448
-17 575 17 155 44 262 121 480 37 105 80 246 95 315 l27 125 43 0 c61 0 94 35
135 141 32 83 33 85 17 125 l-16 41 42 -6 c85 -14 113 -54 123 -178 11 -125
-12 -267 -95 -602 -77 -312 -80 -336 -45 -336 18 0 23 11 54 123 l28 102 1
-616 c1 -699 0 -691 75 -765 71 -71 90 -74 544 -74 l394 0 -18 -27 c-61 -95
-167 -189 -270 -241 -70 -36 -155 -62 -199 -62 -17 0 -39 -6 -48 -12 -17 -14
-297 -553 -297 -573 0 -7 6 -18 14 -24 12 -10 18 -8 33 6 10 10 78 137 152
281 119 232 137 262 158 262 83 0 266 82 357 159 66 56 136 136 168 193 l21
37 216 3 c237 3 260 8 322 71 61 61 64 73 67 303 l3 212 37 6 c149 25 215 138
163 277 -12 30 -34 68 -51 84 l-29 28 32 17 c18 9 45 35 61 58 23 33 29 51 28
94 0 75 -35 177 -72 213 l-30 29 39 23 c84 50 106 130 67 242 -31 90 -49 118
-87 139 -16 10 -29 19 -29 22 0 3 47 33 104 68 119 71 160 113 177 185 19 79
-1 148 -60 206 -87 88 -189 93 -310 17 l-41 -26 0 246 c0 277 -4 303 -62 368
-74 85 -39 81 -763 83 -352 0 -649 -1 -660 -4z m1348 -96 c52 -40 67 -74 67
-157 l0 -70 -776 0 -776 0 3 78 c5 92 28 134 93 163 39 18 74 19 697 16 l656
-2 36 -28z m77 -682 l0 -384 -29 -15 c-70 -37 -120 -132 -106 -205 11 -62 46
-130 82 -161 18 -17 29 -30 23 -30 -16 0 -90 -71 -107 -103 -39 -76 -13 -198
58 -269 l46 -46 -27 -21 c-46 -33 -73 -102 -68 -171 5 -68 33 -117 91 -155
l38 -26 -3 -107 -3 -107 -777 -3 -778 -2 0 683 c0 647 1 688 20 773 39 176 37
396 -5 478 -11 20 -15 61 -15 142 l0 114 780 0 780 0 0 -385z m-1760 93 c0
-16 -14 -62 -30 -102 -32 -76 -58 -100 -98 -89 -19 5 -19 5 0 81 23 88 31 107
66 144 24 26 27 27 44 11 10 -9 18 -29 18 -45z m2094 -16 c83 -48 105 -160 45
-236 -17 -21 -296 -196 -313 -196 -4 0 -6 83 -6 185 l0 184 65 36 c104 59 144
64 209 27z m-132 -531 c37 -42 70 -150 58 -192 -13 -46 -35 -66 -97 -89 -70
-26 -112 -25 -153 3 -90 60 -109 205 -35 262 80 61 180 68 227 16z m-20 -409
c31 -30 58 -112 58 -174 0 -57 -39 -94 -120 -115 -38 -9 -77 -13 -92 -10 -42
11 -93 62 -106 105 -34 113 5 186 117 218 63 18 109 10 143 -24z m-24 -407
c32 -27 62 -99 62 -148 0 -40 -54 -92 -110 -107 -38 -10 -50 -9 -89 7 -56 23
-83 59 -88 120 -4 39 0 55 19 83 47 70 150 93 206 45z m-168 -664 c0 -78 -21
-119 -80 -158 l-34 -23 -667 2 c-656 3 -668 3 -695 24 -54 40 -68 70 -72 150
l-4 74 776 0 776 0 0 -69z"/>
<path d="M2596 4344 c-19 -19 -20 -26 -4 -42 9 -9 70 -12 214 -12 172 0 203 2
215 16 9 11 10 20 2 32 -9 15 -36 17 -211 20 -172 2 -202 0 -216 -14z"/>
<path d="M2247 3564 c-4 -4 -7 -44 -7 -89 0 -61 4 -86 15 -95 29 -24 44 -4 47
62 l3 63 70 5 c67 5 70 6 70 30 0 25 -1 25 -95 28 -53 1 -99 0 -103 -4z"/>
<path d="M3184 3545 c-14 -34 3 -45 71 -45 l65 0 0 -59 c0 -63 13 -80 44 -58
14 10 16 27 14 92 l-3 80 -93 3 c-76 2 -93 0 -98 -13z"/>
<path d="M2362 3438 c-9 -9 -12 -69 -12 -209 l0 -198 -52 -3 c-51 -3 -53 -4
-53 -33 0 -29 2 -30 52 -33 l53 -3 2 -207 3 -207 450 0 450 0 3 207 2 207 53
3 c50 3 52 4 52 33 0 29 -2 30 -52 33 l-53 3 0 198 c0 140 -3 200 -12 209 -17
17 -869 17 -886 0z m838 -233 l0 -175 -395 0 -395 0 0 175 0 175 395 0 395 0
0 -175z m-2 -422 l-3 -178 -390 0 -390 0 -3 178 -2 177 395 0 395 0 -2 -177z"/>
<path d="M2480 3270 c0 -25 4 -30 25 -30 21 0 25 5 25 30 0 25 -4 30 -25 30
-21 0 -25 -5 -25 -30z"/>
<path d="M3030 3285 c0 -10 11 -15 35 -15 24 0 35 5 35 15 0 10 -11 15 -35 15
-24 0 -35 -5 -35 -15z"/>
<path d="M2730 3255 l0 -36 83 3 82 3 0 30 0 30 -82 3 -83 3 0 -36z"/>
<path d="M3060 3150 c0 -49 1 -50 30 -50 29 0 30 1 30 50 0 49 -1 50 -30 50
-29 0 -30 -1 -30 -50z"/>
<path d="M2727 3144 c-4 -4 -7 -16 -7 -26 0 -14 8 -18 36 -18 31 0 35 3 32 23
-2 15 -11 23 -28 25 -14 2 -29 0 -33 -4z"/>
<path d="M2930 3104 c0 -33 2 -35 28 -32 22 2 28 8 30 36 3 30 1 32 -27 32
-29 0 -31 -3 -31 -36z"/>
<path d="M2520 3105 c0 -21 5 -25 30 -25 25 0 30 4 30 25 0 21 -5 25 -30 25
-25 0 -30 -4 -30 -25z"/>
<path d="M2690 2890 c0 -49 1 -50 30 -50 29 0 30 1 30 50 0 49 -1 50 -30 50
-29 0 -30 -1 -30 -50z"/>
<path d="M3032 2878 c3 -40 5 -43 36 -46 32 -3 32 -3 32 42 0 46 0 46 -36 46
l-35 0 3 -42z"/>
<path d="M2490 2855 c0 -32 2 -35 30 -35 28 0 30 3 30 35 0 32 -2 35 -30 35
-28 0 -30 -3 -30 -35z"/>
<path d="M2862 2863 c2 -12 14 -19 36 -21 27 -3 32 0 32 17 0 17 -6 21 -36 21
-28 0 -35 -3 -32 -17z"/>
<path d="M3040 2725 c0 -34 1 -35 40 -35 39 0 40 1 40 35 0 34 -1 35 -40 35
-39 0 -40 -1 -40 -35z"/>
<path d="M2900 2720 c0 -27 3 -30 30 -30 27 0 30 3 30 30 0 27 -3 30 -30 30
-27 0 -30 -3 -30 -30z"/>
<path d="M2730 2710 c0 -28 2 -30 40 -30 38 0 40 2 40 30 0 28 -2 30 -40 30
-38 0 -40 -2 -40 -30z"/>
<path d="M2510 2695 l0 -35 55 0 55 0 0 35 0 35 -55 0 -55 0 0 -35z"/>
<path d="M2251 2576 c-8 -9 -11 -42 -9 -93 l3 -78 95 0 c95 0 95 0 95 25 0 24
-4 25 -65 30 l-65 5 -5 60 c-5 63 -24 82 -49 51z"/>
<path d="M3310 2571 c-5 -11 -10 -40 -10 -65 l0 -46 -58 0 c-65 0 -87 -13 -71
-42 8 -15 22 -18 98 -18 72 0 90 3 95 16 11 28 6 150 -6 162 -18 18 -36 15
-48 -7z"/>
</g>
</svg>
