<svg id="Layer_1" data-name="Layer 1" xmlns="http://www.w3.org/2000/svg" viewBox="0 0 246.63 288.68"><defs><style>.cls-1{fill-rule:evenodd;}</style></defs><title>Artboard 1</title><path class="cls-1" d="M204.57,0a42.17,42.17,0,0,0-42,42.05v6.41h0a123.07,123.07,0,0,0-18-4.55h0l-.93-.17c-1.18-.19-2.37-.36-3.56-.52h0l-1.11-.15c-1.4-.17-2.81-.34-4.22-.47h0c-1.12-.1-2.25-.18-3.39-.26h0c-2.63-.16-5.27-.28-7.94-.28-2,0-4,.06-6.06.16-.67,0-1.33.09-2,.13l-1.18.08-1.29.09-1.54.14c-.78.07-1.55.18-2.32.27-1.2.14-2.41.28-3.6.45l-1.51.23c-.4.06-.78.14-1.18.21-1,.18-2.1.36-3.14.56-.82.16-1.64.34-2.45.52s-1.85.4-2.76.62l-.93.23-2,.53c-1.09.29-2.17.6-3.25.92-.78.23-1.57.47-2.35.72-.39.12-.79.23-1.18.36l-.13,0c-.65.21-1.28.46-1.92.68s-1.5.52-2.25.8c-1.11.41-2.21.85-3.31,1.3-.4.17-.82.32-1.23.49l-.23.09-.58.25c-1.24.53-2.47,1.1-3.7,1.67l-1.51.7c-.72.35-1.43.72-2.14,1.09L66.32,56c-.57.29-1.14.57-1.7.87l-1,.59c-1.31.73-2.62,1.47-3.9,2.25l-.83.51c-.25.15-.49.32-.74.48l-.18.11c-1,.64-2,1.28-3,2-.64.43-1.26.88-1.9,1.32s-1.46,1-2.18,1.52l0,0c-.18.12-.35.26-.52.39-.65.48-1.28,1-1.92,1.45-.87.67-1.73,1.34-2.58,2-.63.51-1.25,1-1.87,1.56l-.13.1c-.17.14-.35.28-.51.43-.62.52-1.22,1.06-1.82,1.59S40.2,74.3,39.6,74.85c-.8.74-1.59,1.5-2.37,2.26-.23.23-.47.44-.7.66l-.1.11c-.31.3-.6.61-.9.91-.8.8-1.57,1.62-2.34,2.45-.52.56-1,1.11-1.55,1.67s-.92,1-1.37,1.56l-.58.68-.42.49c-.44.52-.9,1-1.33,1.57-1,1.16-1.87,2.34-2.78,3.54-.24.3-.48.6-.71.91q-1.69,2.27-3.29,4.61l-.89,1.38c-.46.69-.91,1.39-1.36,2.1l-.15.23-.67,1.07c-.38.62-.73,1.25-1.1,1.87-.59,1-1.19,2-1.76,3.06-.33.6-.65,1.22-1,1.83-.12.22-.24.44-.35.67q-.67,1.27-1.32,2.58c-.35.72-.7,1.46-1,2.2-.47,1-.92,2-1.36,3,0,.12-.11.23-.16.34l-.07.16c-.25.59-.49,1.19-.74,1.78-.42,1-.82,2-1.21,3.09-.29.77-.58,1.54-.86,2.31-.38,1.06-.73,2.13-1.08,3.2-.25.77-.51,1.54-.74,2.31-.34,1.12-.66,2.26-1,3.4-.2.73-.41,1.47-.6,2.21-.32,1.27-.6,2.54-.88,3.82-.14.63-.29,1.26-.42,1.89q-.59,2.88-1,5.81c-.12.8-.24,1.73-.34,2.72A123.06,123.06,0,0,0,145,286.7c.4-.21.78-.45,1.18-.66A113.11,113.11,0,1,0,11,118.33a118.4,118.4,0,1,1,136.7,167.86l-1.69.34a122.69,122.69,0,0,0,39.05-14.46l.2-.11c1.44-.84,2.85-1.7,4.25-2.59l.41-.27q2-1.31,4-2.7l.42-.31c1.34-.94,2.66-1.9,3.95-2.9l.18-.14a124.28,124.28,0,0,0,18.24-17.28c.29-.35.6-.69.9-1,.8-1,1.59-1.93,2.36-2.92.39-.49.78-1,1.16-1.47.71-.92,1.4-1.86,2.09-2.81l1.24-1.74c.63-.91,1.26-1.84,1.87-2.77.43-.64.84-1.29,1.25-2,.58-.91,1.15-1.81,1.7-2.74.42-.71.82-1.43,1.23-2.15.51-.9,1-1.79,1.51-2.7s.84-1.62,1.25-2.43.88-1.7,1.29-2.57c.61-1.27,1.18-2.56,1.74-3.85.45-1,.88-2.06,1.3-3.1s.9-2.21,1.31-3.33c.29-.76.54-1.54.81-2.31.36-1,.73-2.09,1.06-3.14.26-.8.49-1.61.72-2.41.31-1.05.62-2.1.9-3.16.22-.82.42-1.64.62-2.46.27-1.08.52-2.15.75-3.24q.27-1.23.51-2.46.32-1.68.6-3.36c.13-.81.27-1.62.38-2.44.17-1.18.32-2.36.45-3.55.09-.78.19-1.55.27-2.33.12-1.32.21-2.65.3-4,0-.65.1-1.31.13-2,.1-2,.16-4,.16-6V42.05A42.18,42.18,0,0,0,204.57,0ZM84.11,165.37a39.2,39.2,0,0,1,39.2-39.21h0a39.21,39.21,0,1,1-39.21,39.21Z"/></svg>